<svg width="189" height="46" viewBox="0 0 189 46" fill="none" xmlns="http://www.w3.org/2000/svg">
<path d="M6.34943 24.5398V34H1.81108V12.1818H6.22159V20.5234H6.41335C6.78267 19.5575 7.37926 18.8011 8.20312 18.2543C9.02699 17.7003 10.0604 17.4233 11.3033 17.4233C12.4396 17.4233 13.4304 17.6719 14.2756 18.169C15.1278 18.6591 15.7884 19.3658 16.2571 20.2891C16.733 21.2053 16.9673 22.3026 16.9602 23.581V34H12.4219V24.3906C12.429 23.3821 12.1733 22.5973 11.6548 22.0362C11.1435 21.4751 10.4261 21.1946 9.50284 21.1946C8.88494 21.1946 8.33807 21.326 7.86222 21.5888C7.39347 21.8516 7.02415 22.2351 6.75426 22.7393C6.49148 23.2365 6.35653 23.8366 6.34943 24.5398ZM27.9252 34.3196C26.2704 34.3196 24.8393 33.968 23.6319 33.2649C22.4316 32.5547 21.5048 31.5675 20.8514 30.3033C20.198 29.032 19.8713 27.5582 19.8713 25.8821C19.8713 24.1918 20.198 22.7145 20.8514 21.4503C21.5048 20.179 22.4316 19.1918 23.6319 18.4886C24.8393 17.7784 26.2704 17.4233 27.9252 17.4233C29.5801 17.4233 31.0076 17.7784 32.2079 18.4886C33.4153 19.1918 34.3457 20.179 34.9991 21.4503C35.6525 22.7145 35.9792 24.1918 35.9792 25.8821C35.9792 27.5582 35.6525 29.032 34.9991 30.3033C34.3457 31.5675 33.4153 32.5547 32.2079 33.2649C31.0076 33.968 29.5801 34.3196 27.9252 34.3196ZM27.9466 30.804C28.6994 30.804 29.3279 30.5909 29.8322 30.1648C30.3365 29.7315 30.7164 29.142 30.9721 28.3963C31.2349 27.6506 31.3663 26.8018 31.3663 25.8501C31.3663 24.8984 31.2349 24.0497 30.9721 23.304C30.7164 22.5582 30.3365 21.9687 29.8322 21.5355C29.3279 21.1023 28.6994 20.8857 27.9466 20.8857C27.1866 20.8857 26.5474 21.1023 26.0289 21.5355C25.5176 21.9687 25.1305 22.5582 24.8677 23.304C24.612 24.0497 24.4842 24.8984 24.4842 25.8501C24.4842 26.8018 24.612 27.6506 24.8677 28.3963C25.1305 29.142 25.5176 29.7315 26.0289 30.1648C26.5474 30.5909 27.1866 30.804 27.9466 30.804ZM47.6341 17.6364V21.0455H37.7797V17.6364H47.6341ZM40.0169 13.7159H44.5552V28.9716C44.5552 29.3906 44.6191 29.7173 44.747 29.9517C44.8748 30.179 45.0524 30.3388 45.2797 30.4311C45.514 30.5234 45.7839 30.5696 46.0893 30.5696C46.3024 30.5696 46.5154 30.5518 46.7285 30.5163C46.9416 30.4737 47.1049 30.4418 47.2186 30.4205L47.9324 33.7976C47.7051 33.8686 47.3855 33.9503 46.9735 34.0426C46.5616 34.142 46.0609 34.2024 45.4714 34.2237C44.3777 34.2663 43.4189 34.1207 42.595 33.7869C41.7782 33.4531 41.1426 32.9347 40.688 32.2315C40.2335 31.5284 40.0098 30.6406 40.0169 29.5682V13.7159ZM57.872 34.3196C56.1887 34.3196 54.7399 33.9787 53.5254 33.2969C52.318 32.608 51.3876 31.6349 50.7342 30.3778C50.0808 29.1136 49.7541 27.6186 49.7541 25.8928C49.7541 24.2095 50.0808 22.7322 50.7342 21.4609C51.3876 20.1896 52.3074 19.1989 53.4934 18.4886C54.6866 17.7784 56.0858 17.4233 57.6909 17.4233C58.7704 17.4233 59.7754 17.5973 60.7058 17.9453C61.6433 18.2862 62.46 18.8011 63.1561 19.4901C63.8592 20.179 64.4061 21.0455 64.7967 22.0895C65.1873 23.1264 65.3826 24.3409 65.3826 25.733V26.9794H51.5652V24.1669H61.1106C61.1106 23.5135 60.9686 22.9347 60.6845 22.4304C60.4004 21.9261 60.0062 21.532 59.502 21.2479C59.0048 20.9567 58.426 20.8111 57.7654 20.8111C57.0765 20.8111 56.4657 20.9709 55.9331 21.2905C55.4075 21.603 54.9956 22.0256 54.6973 22.5582C54.399 23.0838 54.2463 23.6697 54.2392 24.3161V26.9901C54.2392 27.7997 54.3883 28.4993 54.6866 29.0888C54.992 29.6783 55.4217 30.1328 55.9757 30.4524C56.5297 30.772 57.1866 30.9318 57.9466 30.9318C58.4508 30.9318 58.9125 30.8608 59.3315 30.7188C59.7505 30.5767 60.1092 30.3636 60.4075 30.0795C60.7058 29.7955 60.9331 29.4474 61.0893 29.0355L65.2868 29.3125C65.0737 30.321 64.6369 31.2017 63.9764 31.9545C63.323 32.7003 62.4778 33.2827 61.4409 33.7017C60.411 34.1136 59.2214 34.3196 57.872 34.3196ZM72.8826 12.1818V34H68.3443V12.1818H72.8826Z" fill="#0364CE"/>
<path d="M136.949 34.3409C135.415 34.3409 134.094 33.9787 132.986 33.2543C131.878 32.5298 131.026 31.532 130.429 30.2607C129.832 28.9893 129.534 27.5369 129.534 25.9034C129.534 24.2415 129.839 22.7749 130.45 21.5036C131.068 20.2251 131.928 19.2273 133.028 18.5099C134.136 17.7855 135.429 17.4233 136.906 17.4233C138.057 17.4233 139.094 17.6364 140.017 18.0625C140.94 18.4886 141.697 19.0852 142.286 19.8523C142.876 20.6193 143.241 21.5142 143.384 22.5369H140.869C140.678 21.7912 140.251 21.1307 139.591 20.5554C138.938 19.973 138.057 19.6818 136.949 19.6818C135.969 19.6818 135.109 19.9375 134.371 20.4489C133.639 20.9531 133.067 21.6669 132.656 22.5902C132.251 23.5064 132.048 24.5824 132.048 25.8182C132.048 27.0824 132.247 28.1832 132.645 29.1207C133.05 30.0582 133.618 30.7862 134.349 31.3047C135.088 31.8232 135.955 32.0824 136.949 32.0824C137.602 32.0824 138.195 31.9688 138.728 31.7415C139.261 31.5142 139.712 31.1875 140.081 30.7614C140.45 30.3352 140.713 29.8239 140.869 29.2273H143.384C143.241 30.1932 142.89 31.0632 142.329 31.8374C141.775 32.6044 141.04 33.2152 140.124 33.6697C139.214 34.1172 138.156 34.3409 136.949 34.3409ZM153.707 34.3409C152.229 34.3409 150.933 33.9893 149.818 33.2862C148.71 32.5831 147.844 31.5994 147.219 30.3352C146.601 29.071 146.292 27.5937 146.292 25.9034C146.292 24.1989 146.601 22.7109 147.219 21.4396C147.844 20.1683 148.71 19.1811 149.818 18.478C150.933 17.7749 152.229 17.4233 153.707 17.4233C155.184 17.4233 156.477 17.7749 157.585 18.478C158.7 19.1811 159.566 20.1683 160.184 21.4396C160.809 22.7109 161.121 24.1989 161.121 25.9034C161.121 27.5937 160.809 29.071 160.184 30.3352C159.566 31.5994 158.7 32.5831 157.585 33.2862C156.477 33.9893 155.184 34.3409 153.707 34.3409ZM153.707 32.0824C154.829 32.0824 155.752 31.7947 156.477 31.2195C157.201 30.6442 157.737 29.8878 158.085 28.9503C158.433 28.0128 158.607 26.9972 158.607 25.9034C158.607 24.8097 158.433 23.7905 158.085 22.8459C157.737 21.9013 157.201 21.1378 156.477 20.5554C155.752 19.973 154.829 19.6818 153.707 19.6818C152.585 19.6818 151.661 19.973 150.937 20.5554C150.212 21.1378 149.676 21.9013 149.328 22.8459C148.98 23.7905 148.806 24.8097 148.806 25.9034C148.806 26.9972 148.98 28.0128 149.328 28.9503C149.676 29.8878 150.212 30.6442 150.937 31.2195C151.661 31.7947 152.585 32.0824 153.707 32.0824ZM164.959 34V17.6364H167.388V20.1932H167.601C167.942 19.3196 168.493 18.6413 169.253 18.1584C170.013 17.6683 170.925 17.4233 171.991 17.4233C173.07 17.4233 173.969 17.6683 174.686 18.1584C175.41 18.6413 175.975 19.3196 176.38 20.1932H176.55C176.969 19.348 177.598 18.6768 178.436 18.1797C179.274 17.6754 180.279 17.4233 181.451 17.4233C182.914 17.4233 184.111 17.8814 185.041 18.7976C185.971 19.7067 186.437 21.1236 186.437 23.0483V34H183.922V23.0483C183.922 21.8409 183.592 20.978 182.932 20.4595C182.271 19.9411 181.493 19.6818 180.599 19.6818C179.448 19.6818 178.557 20.0298 177.925 20.7259C177.292 21.4148 176.976 22.2884 176.976 23.3466V34H174.42V22.7926C174.42 21.8622 174.118 21.1129 173.514 20.5447C172.91 19.9695 172.133 19.6818 171.181 19.6818C170.528 19.6818 169.917 19.8558 169.349 20.2038C168.787 20.5518 168.333 21.0348 167.985 21.6527C167.644 22.2635 167.474 22.9702 167.474 23.7727V34H164.959Z" fill="#0364CE"/>
<circle cx="102" cy="23" r="23" fill="#FFDD00"/>
</svg>
